<?xml version="1.0" encoding="utf-8"?>
<!-- Generator: Adobe Illustrator 18.1.1, SVG Export Plug-In . SVG Version: 6.00 Build 0)  -->
<!DOCTYPE svg PUBLIC "-//W3C//DTD SVG 1.1//EN" "http://www.w3.org/Graphics/SVG/1.1/DTD/svg11.dtd">
<svg version="1.1" id="Layer_1" xmlns="http://www.w3.org/2000/svg" xmlns:xlink="http://www.w3.org/1999/xlink" x="0px" y="0px"
	 width="480px" height="80px" viewBox="0 0 480 80" enable-background="new 0 0 480 80" xml:space="preserve">
<polygon id="color_10_" fill="#FFFFFF" points="40,24.7 34,29.8 34,26 30,26 30,33.3 24.6,37.9 25.9,39.4 40,27.3 54.1,39.4 
	55.4,37.9 "/>
<path fill="#FFFFFF" d="M375.2,30.1l-0.5-1.6l-4.5,4.5l-3.4-3.4l4.5-4.5l-1.6-0.5c-0.8-0.3-1.7-0.4-2.6-0.4c-4.7,0-8.5,3.8-8.5,8.5
	c0,0.6,0.1,1.3,0.2,1.9l-14.6,10.9l10,10.3l10.9-14.8c0.6,0.1,1.2,0.2,1.9,0.2c4.7,0,8.5-3.8,8.5-8.5
	C375.6,31.8,375.5,30.9,375.2,30.1z"/>
<g>
	<path fill="#FFFFFF" d="M123.4,24.3l-1,1c-0.7,0.7-1.1,1.6-1.1,2.6c0,0.7,0.2,1.4,0.6,1.9l-8.5,5.4l11.3,11.3l5.4-8.5
		c0.6,0.4,1.2,0.6,1.9,0.6c1,0,1.9-0.4,2.6-1.1l1-1L123.4,24.3z"/>
	<path fill="#FFFFFF" d="M124.4,49.2l-13.6-13.6c-1.4-1.4-3.8-1.4-5.1,0l-1,1l8.7,8.7l-9,9l1.4,1.4l9-9l8.7,8.7l1-1
		c0.7-0.7,1.1-1.6,1.1-2.6S125.1,49.8,124.4,49.2z"/>
</g>
<g>
	<path fill="#FFFFFF" d="M205.2,43.1c1.7-1.5,2.8-3.6,2.8-6.1v-0.4c-1.9-0.5-3.6-1.6-5-3c-2.1,2.2-4.9,3.5-8,3.5c-1,0-2-0.2-3-0.4
		V37c0,2.4,1.1,4.6,2.8,6.1c-5.5,0.6-9.8,5.2-9.8,10.9v1h10.5l2.5-6h4l2.5,6H215v-1C215,48.3,210.7,43.7,205.2,43.1z M202,47h-4
		l-2.2-3.2c1.2,0.8,2.7,1.2,4.2,1.2s3-0.5,4.2-1.2L202,47z"/>
	<path fill="#FFFFFF" d="M202.2,31.4l0.8-1.1l0.8,1.1c1.1,1.5,2.6,2.5,4.2,3.1V33c0-4.4-3.6-8-8-8s-8,3.6-8,8v1.5
		c0.9,0.3,1.9,0.5,3,0.5C197.9,35,200.5,33.7,202.2,31.4z"/>
</g>
<g>
	<polygon fill="#FFFFFF" points="283,48 283,50 277,50 277,48 266,48 266,55 294,55 294,48 	"/>
	<path fill="#FFFFFF" d="M286,29v-4h-12v4h-10v17h13v-2h6v2h13V29H286z M284,29h-8v-2h8V29z"/>
</g>
<g>
	<polygon fill="#FFFFFF" points="450,53 427,53 427,32 434,32 434,30 425,30 425,55 452,55 452,44 450,44 	"/>
	<path fill="#FFFFFF" d="M443,31.1c-6.1,0.4-12,2.7-12,13.9v3l1.8-2.4c2.2-2.9,4.5-4.5,10.2-4.6v6.2L455.5,36L443,24.8V31.1z"/>
</g>
<path fill="#FFFFFF" d="M40,30l-11,9.4V54h8v-7h6v7h8V39.4L40,30z M43,42h-6v-4h6V42z"/>
</svg>
