<?xml version="1.0" encoding="utf-8"?>
<!-- Generator: Adobe Illustrator 16.0.0, SVG Export Plug-In . SVG Version: 6.00 Build 0)  -->
<!DOCTYPE svg PUBLIC "-//W3C//DTD SVG 1.1//EN" "http://www.w3.org/Graphics/SVG/1.1/DTD/svg11.dtd">
<svg version="1.1" id="wersja_niebieska_ok__x2B__V1_xA0_Image_1_"
	 xmlns="http://www.w3.org/2000/svg" xmlns:xlink="http://www.w3.org/1999/xlink" x="0px" y="0px" width="995.514px"
	 height="1809.174px" viewBox="0 0 995.514 1809.174" enable-background="new 0 0 995.514 1809.174" xml:space="preserve">
<g>
	<path fill-rule="evenodd" clip-rule="evenodd" fill="#FEFEFE" d="M503.573,969.027c154.352,0,308.702,0.193,463.049-0.331
		c13.79-0.045,17.918,2.93,17.588,17.278c-1.041,45.06-0.932,90.174-0.052,135.239c0.271,13.76-3.01,17.857-17.376,17.785
		c-119.873-0.626-239.748-0.105-359.619-0.695c-13.911-0.069-17.541,3.183-17.491,17.35c0.564,154.88,0.534,309.763,0.046,464.642
		c-0.043,13.994,2.807,18.541,17.843,18.459c119.868-0.688,239.746-0.184,359.619-0.666c13.03-0.051,17.202,3.186,16.963,16.658
		c-0.817,46.662-0.619,93.35-0.087,140.02c0.122,10.758-2.356,14.516-13.924,14.508c-311.881-0.313-623.767-0.311-935.651-0.012
		c-11.191,0.012-14.287-3.051-14.144-14.186c0.6-47.197,0.83-94.424-0.109-141.607c-0.27-13.564,4.747-15.348,16.404-15.316
		c128.358,0.348,256.723-0.061,385.077,0.592c15.145,0.076,19.177-3.314,19.111-18.867c-0.656-154.348-0.572-308.699-0.104-463.049
		c0.044-13.908-2.632-18.657-17.849-18.575c-128.357,0.687-256.718,0.159-385.077,0.719c-13.901,0.063-17.883-3.228-17.566-17.431
		c0.992-45.064,0.896-90.171,0.041-135.241c-0.254-13.493,2.459-17.724,17.075-17.665
		C192.748,969.265,348.159,969.027,503.573,969.027z"/>
	<path fill-rule="evenodd" clip-rule="evenodd" fill="#FEFEFE" d="M0.029,503.88c1.825-140.763,44.942-265.469,146.179-366.242
		C225.346,58.863,322.209,15.867,432.777,3.858c111.256-12.082,218.031,3.295,316.34,59.145
		c130.177,73.951,206.123,187.696,234.916,333.023c19.966,100.758,15.435,200.543-25.854,296.221
		c-35.971,83.357-95.624,146.602-170.931,196.014c-6.806,4.465-10.094,4.971-14.181-3.223
		c-21.253-42.62-42.745-85.129-64.948-127.258c-5.302-10.057,0.552-12.562,6.835-16.792
		c70.6-47.588,114.719-113.484,125.844-197.583c17.503-132.321-44.128-270.443-179.023-331.733
		c-133.854-60.814-266.19-53.158-386.343,35.365c-128.883,94.957-162.597,278.662-79.906,409.534
		c21.825,34.535,49.928,63.184,84.708,84.771c8.39,5.206,10.041,9.18,5.216,18.343c-21.446,40.749-42.381,81.78-62.686,123.111
		c-4.989,10.151-8.862,9.816-17.305,4.128C97.452,814.2,26.836,716.74,5.839,586.348C1.449,559.103-0.249,531.596,0.029,503.88z"/>
	<path fill-rule="evenodd" clip-rule="evenodd" fill="#FEFEFE" d="M491.941,684.834c-40.514-0.911-90.128-15.083-134.165-46.611
		c-4.364-3.124-14.146-6.349-5.599-13.73c6.571-5.676,6.438-22.269,22.866-13.885c86.139,43.954,172.8,43.73,258.985,0.397
		c16.409-8.25,16.667,6.82,23.046,12.841c9.261,8.742-1.516,11.449-5.944,14.769C613.038,667.209,556.773,684.832,491.941,684.834z"
		/>
</g>
</svg>
